<?xml version="1.0" encoding="UTF-8"?> <svg xmlns="http://www.w3.org/2000/svg" viewBox="0 0 512 512" width="512" height="512"><style> tspan { white-space:pre } .shp0 { fill: #000000 } </style><g id="Layer"><path id="Layer" fill-rule="evenodd" class="shp0" d="M409.94 256C409.94 340.88 340.88 409.94 256 409.94C171.12 409.94 102.06 340.88 102.06 256C102.06 171.12 171.12 102.06 256 102.06C340.88 102.06 409.94 171.12 409.94 256ZM394.94 256C394.94 179.39 332.61 117.06 256 117.06C179.39 117.06 117.06 179.39 117.06 256C117.06 332.61 179.39 394.94 256 394.94C332.61 394.94 394.94 332.61 394.94 256Z"></path><path id="Layer" class="shp0" d="M256 379.39C274 379.39 291.36 375.59 307.59 368.11C311.36 366.38 313 361.92 311.27 358.16C309.53 354.4 305.08 352.76 301.31 354.49C287.07 361.06 271.82 364.39 256 364.39C196.23 364.39 147.61 315.76 147.61 256C147.61 196.23 196.23 147.61 256 147.61C315.77 147.61 364.39 196.23 364.39 256C364.39 288.79 349.77 319.47 324.29 340.17C321.07 342.79 320.58 347.51 323.2 350.72C325.81 353.94 330.53 354.43 333.75 351.82C362.75 328.26 379.39 293.33 379.39 256C379.39 187.96 324.04 132.61 256 132.61C187.96 132.61 132.61 187.96 132.61 256C132.61 324.04 187.96 379.39 256 379.39L256 379.39Z"></path><path id="Layer" class="shp0" d="M511.82 265.29C511.92 262.2 512 259.11 512 256C512 187.62 485.37 123.33 437.02 74.98C388.67 26.63 324.38 0 256 0C211.2 0 167.11 11.74 128.5 33.96C124.91 36.03 123.67 40.61 125.74 44.2C127.8 47.79 132.39 49.03 135.98 46.96C144.26 42.2 152.81 37.95 161.57 34.23L169.74 55.82C170.85 58.76 173.64 60.56 176.6 60.56C177.47 60.56 178.34 60.41 179.2 60.09C182.99 58.65 184.9 54.42 183.47 50.63L175.25 28.89C201.03 19.74 228.37 15 256 15C256.51 15 257.02 15.02 257.53 15.02L256.71 36.76C256.56 40.85 259.75 44.29 263.85 44.45C263.94 44.45 264.03 44.45 264.13 44.45C268.1 44.45 271.38 41.31 271.53 37.32L272.35 15.56C298.75 17.31 324.32 23.3 348.27 33.22L339.25 53.22C337.56 56.95 339.23 61.34 342.96 63.02C343.95 63.47 344.99 63.68 346 63.68C348.83 63.68 351.53 62.06 352.77 59.31L361.78 39.34C385.43 50.91 407.25 66.43 426.41 85.59C426.78 85.95 427.13 86.33 427.5 86.69L411.5 101.54C408.49 104.32 408.32 109.01 411.1 112.02C412.56 113.59 414.55 114.39 416.54 114.39C418.35 114.39 420.16 113.73 421.58 112.41L437.59 97.56C455.02 117.47 468.87 139.8 478.79 163.75L458.22 171.53C454.39 172.98 452.46 177.26 453.91 181.09C455.03 184.06 457.85 185.89 460.84 185.89C461.72 185.89 462.6 185.73 463.47 185.41L484.02 177.63C492.55 202.52 497 228.92 497 256C497 256.51 496.98 257.02 496.98 257.53L477.72 256.81C473.6 256.66 470.1 259.89 469.95 264.03C469.79 268.17 473.02 271.65 477.16 271.8L496.43 272.53C494.63 299.31 488.46 325.24 478.25 349.49C478.18 349.46 478.11 349.41 478.03 349.38L454.03 338.55C450.34 336.89 445.99 338.53 444.32 342.23C442.66 345.92 444.3 350.27 448 351.94L472 362.76C472.05 362.79 472.1 362.8 472.15 362.82C460.64 386.07 445.29 407.53 426.41 426.41C425.54 427.29 424.65 428.14 423.77 429L406.21 410.06C403.45 407.09 398.81 406.92 395.83 409.68C392.86 412.43 392.69 417.08 395.44 420.05L412.94 438.91C392.73 456.31 370.07 470.03 345.8 479.77L336.92 456.31C335.49 452.52 331.25 450.61 327.46 452.04C323.67 453.48 321.76 457.72 323.19 461.51L332.01 484.83C307.82 492.84 282.23 497 256 497C254.54 497 253.09 496.97 251.64 496.95L252.54 473.06C252.69 469.01 249.53 465.6 245.48 465.45C241.43 465.29 238.02 468.46 237.87 472.51L236.98 496.25C210.66 494.21 185.19 487.94 161.37 477.77L170.84 456.77C172.51 453.07 170.87 448.73 167.17 447.06C163.48 445.39 159.13 447.04 157.46 450.73L148.05 471.6C125.24 460.15 104.16 444.99 85.59 426.41C84.77 425.59 83.97 424.76 83.17 423.93L99.33 408.94C102.31 406.18 102.48 401.54 99.72 398.57C96.97 395.59 92.32 395.42 89.35 398.18L73.24 413.12C56.14 393.29 42.57 371.09 32.84 347.31L53.09 339.66C56.88 338.22 58.79 333.99 57.35 330.19C55.92 326.4 51.68 324.49 47.89 325.93L27.71 333.56C19.36 308.91 15 282.79 15 256C15 255.49 15.02 254.98 15.02 254.47L36.34 255.27C36.43 255.28 36.53 255.28 36.62 255.28C40.55 255.28 43.8 252.17 43.95 248.21C44.1 244.16 40.94 240.75 36.89 240.6L15.55 239.8C17.25 213.79 23.06 188.64 32.91 164.68L52.63 173.58C53.61 174.02 54.63 174.23 55.64 174.23C58.44 174.23 61.11 172.62 62.34 169.91C64.01 166.21 62.36 161.86 58.67 160.2L38.9 151.28C39.51 150.03 40.1 148.78 40.73 147.54C52.18 124.85 67.38 103.92 85.4 85.83L100.46 102.07C101.91 103.63 103.87 104.41 105.84 104.41C107.63 104.41 109.42 103.77 110.83 102.46C113.8 99.7 113.98 95.05 111.22 92.08L96.07 75.75C100.45 71.86 104.94 68.11 109.59 64.56C112.88 62.04 113.5 57.33 110.98 54.04C108.46 50.75 103.75 50.13 100.47 52.65C69.92 76.05 44.63 106.53 27.34 140.78C9.2 176.71 0 215.48 0 256C0 324.38 26.63 388.67 74.98 437.02C123.33 485.37 187.62 512 256 512C324.38 512 388.67 485.37 437.02 437.02C483.03 391.01 509.35 330.56 511.8 265.9C511.8 265.8 511.82 265.7 511.82 265.6C511.82 265.49 511.82 265.39 511.82 265.29L511.82 265.29Z"></path></g></svg> 